<?xml version="1.0" encoding="UTF-8" standalone="no"?>
<svg
   width="18"
   height="19"
   viewBox="0 0 18 19"
   fill="none"
   version="1.1"
   id="svg6"
   sodipodi:docname="TrashBlack.svg"
   inkscape:version="1.2 (dc2aedaf03, 2022-05-15)"
   xmlns:inkscape="http://www.inkscape.org/namespaces/inkscape"
   xmlns:sodipodi="http://sodipodi.sourceforge.net/DTD/sodipodi-0.dtd"
   xmlns="http://www.w3.org/2000/svg"
   xmlns:svg="http://www.w3.org/2000/svg">
  <defs
     id="defs10" />
  <sodipodi:namedview
     id="namedview8"
     pagecolor="#ffffff"
     bordercolor="#111111"
     borderopacity="1"
     inkscape:showpageshadow="0"
     inkscape:pageopacity="0"
     inkscape:pagecheckerboard="1"
     inkscape:deskcolor="#d1d1d1"
     showgrid="false"
     inkscape:zoom="44.052632"
     inkscape:cx="9.0005974"
     inkscape:cy="9.5113501"
     inkscape:window-width="1920"
     inkscape:window-height="1017"
     inkscape:window-x="1912"
     inkscape:window-y="-8"
     inkscape:window-maximized="1"
     inkscape:current-layer="svg6" />
  <path
     d="M2.45787 17.86C2.51882 18.52 3.06735 19 3.73778 19H14.2615C14.9319 19 15.4804 18.5 15.5414 17.86L16.7197 5.69995H1.27954L2.45787 17.86Z"
     fill="white"
     id="path2"
     style="fill:#000000;fill-opacity:1" />
  <path
     d="M16.7201 1.9H11.5801V1.26C11.5801 0.560001 11.0113 0 10.3002 0H7.72009C7.00903 0 6.44018 0.560001 6.44018 1.26V1.9H1.27991C0.568849 1.9 0 2.46 0 3.16C0 3.86001 0.568849 4.42001 1.27991 4.42001H16.7201C17.4312 4.42001 18 3.86001 18 3.16C18 2.46 17.4312 1.9 16.7201 1.9Z"
     fill="white"
     id="path4"
     style="fill:#000000;fill-opacity:1" />
</svg>
